<?xml version="1.0" standalone="no"?>
<!DOCTYPE svg PUBLIC "-//W3C//DTD SVG 20010904//EN"
 "http://www.w3.org/TR/2001/REC-SVG-20010904/DTD/svg10.dtd">
<svg version="1.0" xmlns="http://www.w3.org/2000/svg"
 width="50px" height="50px" viewBox="0 0 905.000000 500.000000"
 preserveAspectRatio="xMidYMid meet">

<g transform="translate(0.000000,500.000000) scale(0.100000,-0.100000)"
fill="#000000" stroke="none">
<path d="M0 2500 l0 -2500 4525 0 4525 0 0 2500 0 2500 -4525 0 -4525 0 0
-2500z m4580 1245 l0 -1145 2170 0 2171 0 -3 -67 -3 -68 -2167 -3 -2168 -2 0
-1160 0 -1161 -77 3 -78 3 -3 1152 -2 1153 -2133 2 -2132 3 -3 73 -3 72 2136
0 2135 0 0 1138 c0 626 3 1142 7 1145 3 4 39 7 80 7 l73 0 0 -1145z m4335 590
l0 -550 -50 0 -50 0 -3 497 -2 498 -533 2 -532 3 -3 39 c-6 72 -54 66 590 64
l583 -3 0 -550z m-7555 500 l0 -45 -552 -2 -553 -3 -3 -502 -2 -503 -45 0 -45
0 0 550 0 550 600 0 600 0 0 -45z m5448 -421 c150 -31 248 -100 300 -212 25
-53 27 -67 27 -187 0 -158 -20 -220 -97 -301 -95 -101 -209 -142 -420 -151
l-138 -6 0 -238 0 -239 -145 0 -145 0 0 675 0 675 270 0 c209 0 289 -4 348
-16z m-4339 -23 c237 -60 408 -232 456 -458 19 -89 19 -288 0 -378 -50 -236
-211 -399 -460 -467 -72 -19 -110 -22 -377 -26 l-298 -4 0 675 c0 370 3 677 8
681 4 5 138 6 297 3 252 -4 301 -8 374 -26z m4611 -2526 l0 -115 -185 0 -185
0 -2 -547 -3 -548 -142 -3 -143 -3 0 551 0 550 -185 0 -185 0 0 115 0 115 515
0 515 0 0 -115z m-5359 3 c6 -24 24 -90 39 -148 86 -320 125 -492 161 -719 13
-84 23 -79 33 17 13 122 46 270 128 580 l83 312 194 -2 195 -3 78 -310 c72
-287 128 -566 128 -636 0 -74 19 -12 53 179 23 125 68 318 115 487 l77 280
173 3 c162 2 173 1 168 -15 -3 -10 -59 -200 -125 -423 -66 -223 -138 -470
-161 -550 -23 -80 -50 -175 -61 -212 l-20 -68 -194 0 c-107 0 -195 2 -195 5 0
31 -226 994 -235 1004 -3 2 -7 -2 -10 -10 -5 -14 -161 -668 -210 -882 l-27
-117 -191 2 -192 3 -73 255 c-56 195 -252 869 -288 993 -5 16 8 17 170 17
l175 0 12 -42z m-1463 -1100 l2 -518 528 -2 527 -3 0 -50 0 -50 -580 0 -580 0
-3 560 c-1 308 0 566 3 573 3 9 20 12 52 10 l48 -3 3 -517z m8652 -68 l0 -550
-575 0 -575 0 0 45 0 45 528 2 527 3 3 503 2 502 45 0 45 0 0 -550z"/>
<path d="M6482 3998 l3 -203 92 2 c114 2 164 15 210 56 46 40 63 82 63 152 0
69 -18 113 -59 148 -44 37 -89 47 -209 47 l-102 0 2 -202z"/>
<path d="M2090 3735 l0 -448 113 7 c189 11 277 47 350 141 56 74 81 165 81
300 1 175 -34 277 -122 356 -74 66 -123 81 -284 87 l-138 4 0 -447z"/>
</g>
</svg>
